<svg xmlns="http://www.w3.org/2000/svg" width="52.31" height="10.7" viewBox="0 0 52.31 10.7"><defs><style>.\33 5d1920d-7a49-44a5-b3e0-d1dfc26a7492{fill:#1c264a;}</style></defs><title>アセット 1</title><g id="bd36236b-a72c-4b3b-a102-4281fc85443b" data-name="レイヤー 2"><g id="38250487-e4e9-47c2-8348-8730390b97d1" data-name="レイヤー 1"><path class="35d1920d-7a49-44a5-b3e0-d1dfc26a7492" d="M11.4,10.36V0H9.34L5.72,5.2,2.08,0H0V10.36H2.06V3.76L5.72,9l3.62-5.2v6.6Z"/><path class="35d1920d-7a49-44a5-b3e0-d1dfc26a7492" d="M25.17,10.36V8.28H17.81V6h3.76V4H17.81V2.08h7.12V0H15.77V10.36Z"/><path class="35d1920d-7a49-44a5-b3e0-d1dfc26a7492" d="M38,10.36V0H36V7L30.21,0H28.15V10.36h2.06v-7l5.76,7Z"/><path class="35d1920d-7a49-44a5-b3e0-d1dfc26a7492" d="M52.31,6.3V0h-2V6.3c0,1.12-.2,1.52-.78,1.84a4.32,4.32,0,0,1-2,.46c-1.76,0-3.12-.18-3.12-2.3V0H42.3V6.3c0,3.06,2,4.4,4.88,4.4a5.59,5.59,0,0,0,4.34-1.64A3.9,3.9,0,0,0,52.31,6.3Z"/></g></g></svg>