<svg xmlns="http://www.w3.org/2000/svg" width="62.74" height="11.06" viewBox="0 0 62.74 11.06"><defs><style>.\35 674241d-b1d4-4874-90c8-03ee627cd8bb{fill:#1c264a;}</style></defs><title>アセット 2</title><g id="91fe70e1-569d-419b-b629-eaad41532951" data-name="レイヤー 2"><g id="2b4d6cb6-dbd7-44b2-bd5e-55ac4b626e51" data-name="レイヤー 1のコピー"><path class="5674241d-b1d4-4874-90c8-03ee627cd8bb" d="M11.66,9.42,10.72,7.5A7,7,0,0,1,6.24,9c-2,0-4.16-1.18-4.16-3.4s2.1-3.44,4.06-3.44a5.9,5.9,0,0,1,4.12,1.7L11.48,2a8,8,0,0,0-5.3-2C2.88,0,0,2.18,0,5.64S3.12,11,6.38,11A8.2,8.2,0,0,0,11.66,9.42Z"/><path class="5674241d-b1d4-4874-90c8-03ee627cd8bb" d="M22.68,10.7V8.58h-5.9V.34H14.64V10.7Z"/><path class="5674241d-b1d4-4874-90c8-03ee627cd8bb" d="M36.89,5.42C36.89,1.84,33.77,0,30.51,0s-6.36,2-6.36,5.48S27.23,11,30.49,11,36.89,8.94,36.89,5.42Zm-2.1,0c0,2.26-2.2,3.48-4.24,3.48s-4.3-1.06-4.3-3.4,2.2-3.4,4.28-3.4S34.79,3.12,34.79,5.44Z"/><path class="5674241d-b1d4-4874-90c8-03ee627cd8bb" d="M50.15,7.58c0-2.36-1.84-3.18-3.92-3.26-.9,0-1.8,0-2.7-.06-.62,0-1.84-.16-1.84-1,0-1,1.54-1.2,2.28-1.2A9.3,9.3,0,0,1,48.53,3.2l.94-1.84a9.79,9.79,0,0,0-5-1.36c-2.08,0-4.86.58-4.86,3.18,0,2.16,1.88,3.1,3.78,3.18,1,0,2.06,0,3.1.08.66,0,1.56.2,1.56,1C48,8.68,46.35,9,45.45,9a8.55,8.55,0,0,1-5.54-1.6l-1,1.86a8.31,8.31,0,0,0,5.82,1.84C47,11.06,50.15,10.46,50.15,7.58Z"/><path class="5674241d-b1d4-4874-90c8-03ee627cd8bb" d="M62.74,10.7V8.62H55.38V6.38h3.76V4.32H55.38V2.42H62.5V.34H53.34V10.7Z"/></g></g></svg>